<svg xmlns="http://www.w3.org/2000/svg" width="193.549" height="32.5" viewBox="0 0 193.549 32.5" fill="none">
  <path
    d="M0 0L193.549 0C192.443 0.255 191.43 0.874 190.712 1.74C190.141 2.43 189.762 3.272 189.622 4.158C189.583 4.413 189.563 4.676 189.563 4.932C189.563 4.932 189.563 22.476 189.563 22.476C189.555 22.616 189.567 22.784 189.551 22.923C189.415 26.498 187.236 29.862 184.028 31.438C182.775 32.069 181.383 32.428 179.982 32.492C179.787 32.603 14.301 32.432 13.985 32.5C13.77 32.496 13.527 32.488 13.307 32.468C11.895 32.356 10.506 31.941 9.265 31.259C6.624 29.826 4.708 27.145 4.214 24.18C3.823 22.648 4.277 5.694 3.978 3.978C3.783 2.957 3.26 2.003 2.506 1.289C1.816 0.634 0.934 0.18 0 0Z"
    fill="#050505"
  />
</svg>
