<svg xmlns="http://www.w3.org/2000/svg" width="130" height="20" viewBox="220 76 130 20" fill="none">
  <path
    d="M474.102,88.538c0.001-1.043-0.294-2.085-0.844-2.972c-0.522-0.846-1.272-1.551-2.15-2.017
    c-0.74-0.395-1.57-0.622-2.408-0.659c-0.503,0.008-159.286-0.05-159.824,0.021c-0.277,0.057-0.531,0.212-0.711,0.429
    c-0.143,0.173-0.238,0.384-0.273,0.606c-0.01,0.064-0.015,0.13-0.015,0.194c0,0,0,4.397,0,4.397
    c-0.002,0.035,0.001,0.077-0.003,0.112c-0.034,0.896-0.58,1.739-1.384,2.134c-0.314,0.158-0.663,0.248-1.014,0.264
    c-0.049,0.028-41.523-0.015-41.602,0.002c-0.054-0.001-0.115-0.003-0.17-0.008c-0.354-0.028-0.702-0.132-1.013-0.303
    c-0.662-0.359-1.142-1.031-1.266-1.774c-0.098-0.384,0.016-4.633-0.059-5.063c-0.049-0.256-0.18-0.495-0.369-0.674
    c-0.173-0.164-0.394-0.278-0.628-0.323c-0.383-0.082-159.194,0.012-159.552-0.023c-1.53-0.006-3.05,0.646-4.1,1.761
    c-0.576,0.606-1.017,1.344-1.275,2.14c-0.116,0.361-0.201,0.738-0.243,1.116c-0.497,0.616,0.282,240.431-0.036,241.091h378.936V88.538z"
    fill="#060606"
  />
</svg>
